<?xml version="1.0" standalone="no"?>
<!DOCTYPE svg PUBLIC "-//W3C//DTD SVG 20010904//EN"
 "http://www.w3.org/TR/2001/REC-SVG-20010904/DTD/svg10.dtd">
<svg version="1.0" xmlns="http://www.w3.org/2000/svg"
 width="1801.000000pt" height="1801.000000pt" viewBox="0 0 1801.000000 1801.000000"
 preserveAspectRatio="xMidYMid meet">
<metadata>
Created by potrace 1.14, written by Peter Selinger 2001-2017
</metadata>
<g transform="translate(0.000000,1801.000000) scale(0.100000,-0.100000)"
fill="#000000" stroke="none">
<path d="M8686 17027 c-77 -133 -216 -375 -309 -537 -94 -162 -220 -383 -282
-490 -62 -107 -135 -235 -164 -283 -28 -49 -51 -90 -51 -92 0 -2 -17 -32 -38
-66 -22 -35 -50 -84 -64 -109 -14 -25 -58 -101 -98 -170 -39 -69 -82 -143 -95
-165 -43 -76 -174 -302 -194 -336 -11 -19 -34 -59 -51 -89 -16 -30 -41 -73
-54 -95 -27 -47 -320 -553 -349 -605 -23 -42 -114 -199 -127 -220 -5 -8 -33
-58 -63 -110 -65 -114 -290 -503 -395 -685 -41 -71 -118 -204 -170 -295 -52
-91 -170 -295 -262 -455 -92 -159 -177 -306 -188 -325 -11 -19 -52 -91 -92
-160 -40 -69 -81 -141 -92 -160 -54 -94 -566 -982 -938 -1625 -10 -16 -42 -73
-72 -125 -30 -52 -69 -119 -86 -148 -18 -29 -32 -57 -32 -62 0 -6 -4 -10 -10
-10 -5 0 -10 -5 -10 -10 0 -9 -50 -96 -293 -515 -22 -38 -52 -90 -67 -115 -15
-25 -44 -74 -64 -110 -20 -36 -41 -72 -46 -80 -165 -268 -326 -575 -402 -765
-46 -113 -113 -321 -124 -379 -3 -16 -7 -32 -9 -36 -7 -11 -48 -227 -59 -310
-27 -199 -28 -645 -1 -750 2 -8 6 -37 10 -65 3 -27 15 -95 26 -150 121 -585
402 -1109 824 -1530 66 -66 143 -138 170 -160 28 -22 52 -42 55 -45 22 -23
156 -121 250 -183 382 -251 827 -412 1250 -453 125 -12 484 -5 510 11 3 1 28
6 55 9 156 21 410 99 590 183 128 60 318 170 395 230 264 203 420 359 595 591
100 133 158 226 420 667 197 332 334 562 355 595 5 8 24 40 42 70 118 201 499
837 506 845 5 6 11 15 13 21 4 9 151 257 191 322 9 15 23 38 31 52 7 14 90
153 184 310 94 157 179 300 189 317 11 18 87 146 169 284 83 138 160 267 171
287 324 561 398 677 458 727 96 77 280 4 332 -132 35 -91 2 -186 -168 -473
-47 -80 -94 -160 -104 -177 -11 -18 -143 -238 -294 -490 -151 -251 -279 -465
-285 -474 -5 -10 -33 -58 -61 -106 -305 -521 -440 -768 -637 -1163 -140 -281
-205 -419 -297 -635 -110 -257 -293 -762 -314 -866 -3 -13 -16 -66 -30 -116
-14 -51 -28 -103 -30 -115 -3 -13 -12 -50 -20 -83 -8 -33 -17 -73 -20 -90 -2
-16 -12 -67 -20 -112 -8 -45 -18 -108 -22 -140 -3 -32 -8 -60 -9 -63 -26 -44
-26 -738 0 -780 2 -3 6 -30 10 -60 4 -30 9 -58 11 -61 2 -4 6 -24 10 -44 13
-84 14 -83 119 97 55 94 112 192 126 217 14 25 106 183 204 351 98 168 186
319 195 335 22 39 307 530 331 570 10 17 24 41 32 55 12 23 106 185 507 875
90 154 172 296 183 315 10 19 50 87 87 150 92 157 463 797 487 840 11 19 47
80 79 135 33 55 63 107 67 115 4 8 15 29 25 45 11 17 126 215 257 440 131 226
268 462 306 525 98 168 309 529 331 570 29 51 127 218 159 270 120 198 218
395 265 535 31 93 41 132 62 245 4 19 7 112 6 205 -1 151 -4 182 -28 280 -91
357 -291 644 -587 841 -326 216 -735 270 -1064 139 -252 -100 -483 -322 -657
-635 -58 -103 -472 -807 -490 -832 -11 -16 -16 -28 -12 -28 4 0 0 -8 -8 -17
-8 -10 -30 -45 -49 -78 -38 -67 -34 -60 -108 -187 -93 -157 -443 -761 -464
-798 -10 -19 -23 -39 -27 -45 -4 -5 -19 -30 -32 -55 -14 -25 -90 -155 -168
-290 -78 -135 -151 -261 -162 -280 -11 -19 -102 -174 -201 -345 -99 -170 -188
-325 -199 -343 -10 -18 -25 -43 -32 -55 -8 -12 -25 -40 -38 -63 -21 -37 -197
-338 -218 -374 -243 -407 -388 -591 -600 -763 -105 -85 -300 -199 -380 -222
-3 -1 -42 -13 -87 -28 -182 -59 -425 -75 -633 -41 -73 12 -87 15 -169 35 -534
132 -1018 531 -1249 1029 -24 52 -48 104 -53 115 -42 92 -103 349 -116 490
-19 206 2 481 51 660 75 278 166 472 414 884 19 33 109 186 126 216 6 11 19
31 27 45 16 24 518 883 557 951 10 19 37 63 59 99 21 36 42 72 46 80 4 8 17
31 28 50 12 19 71 121 131 225 61 105 118 201 127 215 8 14 21 34 26 45 25 45
239 413 261 447 13 21 24 40 24 43 0 2 17 33 38 67 21 35 50 83 64 108 14 25
74 128 133 230 138 236 803 1384 857 1480 11 19 41 71 67 115 25 44 51 88 56
98 6 9 69 120 141 245 72 125 140 243 150 262 11 19 22 37 25 40 3 3 19 30 34
60 16 30 37 66 46 80 9 14 27 45 41 70 14 25 49 86 78 135 209 356 324 615
405 911 18 67 36 135 38 150 3 16 12 63 20 104 9 41 18 98 22 125 4 28 8 61
10 75 27 190 26 589 -1 804 -10 74 -35 220 -49 282 -8 34 -16 73 -19 85 -3 13
-12 50 -20 82 -9 32 -16 60 -16 62 0 24 -35 -30 -154 -238z"/>
<path d="M9580 16503 c-89 -36 -131 -142 -90 -223 33 -64 72 -87 168 -95 103
-9 167 -17 312 -35 89 -12 128 -17 170 -25 14 -2 45 -7 70 -10 25 -3 53 -8 63
-11 10 -3 30 -7 45 -9 39 -5 280 -54 327 -67 22 -5 47 -11 56 -13 112 -22 412
-108 642 -186 927 -312 1804 -823 2542 -1483 117 -105 470 -458 566 -565 40
-46 79 -89 84 -95 29 -31 169 -202 230 -281 38 -49 72 -92 75 -95 3 -3 38 -50
78 -105 39 -55 75 -105 80 -111 37 -43 372 -573 372 -587 0 -2 22 -42 49 -89
222 -386 475 -998 610 -1478 12 -41 28 -97 36 -125 8 -27 17 -61 19 -75 3 -14
11 -50 19 -80 14 -52 41 -174 52 -230 3 -14 11 -59 20 -100 25 -130 52 -296
70 -435 12 -98 14 -111 20 -175 3 -36 8 -83 10 -105 16 -160 26 -403 25 -630
-1 -223 -5 -344 -15 -465 -14 -180 -16 -207 -20 -240 -2 -19 -7 -62 -10 -95
-4 -33 -10 -85 -15 -115 -5 -30 -12 -77 -15 -105 -3 -27 -8 -59 -11 -70 -2
-11 -6 -36 -8 -55 -6 -42 -50 -274 -66 -345 -7 -27 -13 -59 -16 -70 -2 -11
-15 -67 -29 -125 -229 -926 -649 -1811 -1224 -2578 -110 -146 -299 -381 -340
-423 -9 -9 -45 -49 -81 -90 -84 -96 -441 -454 -548 -548 -196 -174 -537 -446
-663 -527 -24 -16 -46 -32 -49 -35 -19 -23 -458 -297 -620 -386 -224 -124
-567 -289 -758 -364 -42 -17 -90 -37 -107 -44 -34 -16 -261 -98 -350 -127
-120 -39 -280 -90 -295 -93 -8 -2 -67 -17 -130 -35 -106 -29 -254 -66 -307
-76 -140 -27 -257 -56 -281 -68 -69 -35 -96 -134 -59 -207 38 -74 100 -103
187 -87 25 5 54 10 65 12 11 2 74 16 140 31 66 15 128 28 137 30 178 36 816
234 965 301 17 8 34 14 37 14 3 0 30 11 60 25 30 14 58 25 61 25 3 0 25 8 48
19 23 10 96 42 162 71 293 129 618 302 925 493 127 80 432 285 478 322 10 7
82 64 162 126 570 440 1092 984 1522 1584 113 158 277 413 383 595 88 151 137
244 230 429 248 497 428 989 565 1546 32 132 66 278 74 325 9 47 18 96 21 110
2 14 7 36 10 50 2 14 7 45 10 70 3 25 10 68 15 95 13 72 24 149 22 156 -1 4 3
33 8 65 9 58 14 107 25 234 3 36 7 88 10 115 18 209 24 649 11 890 -8 171 -20
323 -31 425 -9 78 -17 146 -20 170 -2 14 -7 45 -10 70 -17 125 -36 243 -39
249 -2 3 -7 29 -10 56 -4 28 -9 57 -11 65 -2 8 -7 30 -10 48 -9 54 -32 161
-60 277 -15 61 -28 117 -30 125 -2 8 -17 65 -35 125 -17 61 -33 117 -35 125
-7 28 -96 310 -105 333 -12 32 -23 61 -26 72 -4 17 -72 193 -116 300 -264 648
-618 1256 -1062 1825 -43 55 -177 219 -211 256 -5 7 -37 43 -70 80 -199 227
-464 490 -736 730 -47 42 -256 212 -298 244 -18 14 -47 37 -65 51 -17 14 -71
54 -121 90 -49 35 -92 66 -95 70 -10 12 -389 259 -485 316 -266 159 -544 304
-818 427 -81 36 -149 66 -152 66 -2 0 -28 11 -57 24 -137 62 -481 184 -725
257 -119 35 -489 131 -553 143 -14 2 -47 9 -75 15 -27 6 -63 13 -80 16 -211
37 -318 55 -355 60 -25 3 -56 7 -70 10 -29 5 -79 12 -165 21 -33 3 -67 8 -76
9 -40 8 -215 14 -229 8z"/>
<path d="M7470 16384 c-36 -8 -74 -16 -85 -18 -79 -16 -305 -70 -336 -81 -22
-8 -39 -12 -39 -10 0 2 -15 -1 -32 -6 -18 -6 -40 -12 -48 -14 -102 -27 -419
-126 -465 -145 -11 -4 -60 -22 -110 -40 -99 -36 -336 -130 -402 -161 -24 -10
-45 -19 -47 -19 -8 0 -204 -93 -359 -171 -348 -175 -671 -369 -992 -597 -114
-81 -357 -266 -386 -294 -8 -7 -34 -29 -59 -48 -25 -19 -47 -37 -50 -40 -3 -3
-41 -36 -85 -75 -145 -126 -172 -151 -340 -315 -109 -107 -305 -313 -366 -385
-19 -22 -37 -42 -40 -45 -7 -6 -160 -189 -201 -241 -141 -178 -237 -308 -340
-459 -91 -133 -282 -436 -299 -473 -5 -12 -19 -38 -31 -57 -66 -107 -255 -477
-322 -630 -16 -36 -37 -83 -47 -105 -89 -195 -254 -658 -324 -910 -39 -139
-110 -422 -118 -471 -3 -16 -10 -49 -15 -74 -12 -52 -13 -57 -40 -210 -20
-118 -38 -228 -46 -290 -16 -124 -27 -218 -32 -285 -3 -33 -7 -80 -9 -105 -27
-261 -27 -1054 0 -1222 2 -13 6 -57 10 -98 3 -41 8 -88 10 -105 2 -16 7 -54
10 -83 5 -53 12 -103 20 -157 3 -16 7 -48 10 -70 3 -22 10 -62 15 -90 6 -27
12 -68 16 -90 22 -156 107 -520 176 -760 148 -518 376 -1067 633 -1530 128
-229 195 -340 335 -550 366 -549 771 -1010 1314 -1495 21 -19 44 -40 50 -45 6
-6 58 -49 116 -95 58 -47 107 -88 110 -91 9 -10 285 -216 370 -275 452 -317
868 -545 1465 -804 197 -85 777 -281 930 -314 6 -2 30 -8 54 -15 58 -17 336
-80 381 -87 19 -3 37 -7 40 -9 7 -4 279 -53 337 -61 21 -3 49 -7 63 -9 14 -2
48 -6 75 -10 28 -3 75 -10 105 -15 30 -4 62 -8 70 -8 8 0 33 -3 56 -6 84 -12
174 -14 205 -6 124 36 149 214 40 285 -37 24 -58 29 -191 41 -41 3 -82 8 -90
9 -8 2 -42 6 -75 9 -101 11 -433 67 -555 93 -63 13 -126 27 -140 29 -14 3 -43
10 -65 16 -22 5 -47 11 -55 13 -93 18 -458 125 -635 185 -410 140 -927 373
-1248 562 -26 15 -50 28 -52 28 -12 0 -401 250 -518 331 -178 126 -469 349
-507 389 -3 3 -30 25 -60 50 -30 25 -62 51 -70 60 -8 8 -55 51 -105 95 -180
161 -467 457 -635 655 -30 36 -57 67 -60 70 -12 11 -161 201 -232 295 -152
203 -395 572 -495 755 -16 30 -40 73 -53 95 -46 80 -219 433 -275 560 -161
366 -305 790 -398 1176 -33 136 -89 401 -101 479 -16 102 -46 311 -51 355 -3
28 -8 64 -10 80 -2 17 -7 62 -10 100 -3 39 -8 93 -10 120 -25 286 -25 893 0
1134 2 20 7 65 10 101 3 36 7 79 10 95 2 17 7 55 10 85 3 30 7 66 9 80 3 14 7
48 11 75 3 28 8 59 10 70 3 11 7 36 10 55 2 19 7 49 10 65 13 70 35 192 40
215 3 14 7 37 10 51 11 58 78 332 111 449 151 543 409 1159 684 1630 40 69 78
134 84 145 67 119 380 575 458 670 10 11 45 56 80 100 184 235 462 537 714
775 148 140 451 395 585 493 13 9 58 43 99 73 97 73 443 303 527 352 36 20 77
44 91 53 282 171 725 382 1101 525 245 94 709 239 831 260 14 3 34 8 45 11 11
4 25 8 31 9 7 1 45 10 85 19 41 9 88 19 104 22 79 13 152 34 175 51 93 70 82
220 -21 272 -44 23 -79 24 -169 4z"/>
<path d="M9117 14753 c-8 -16 -77 -136 -154 -268 -77 -132 -175 -301 -218
-375 -43 -74 -108 -187 -145 -250 -165 -284 -775 -1334 -810 -1395 -9 -16 -65
-113 -125 -215 -59 -102 -115 -198 -125 -215 -113 -198 -216 -375 -231 -397
-11 -15 -19 -30 -19 -33 0 -3 -20 -38 -44 -78 -38 -63 -120 -204 -179 -307
-10 -19 -66 -114 -122 -210 -56 -96 -111 -191 -122 -210 -11 -19 -93 -161
-183 -315 -89 -154 -170 -294 -180 -310 -9 -17 -89 -154 -177 -305 -89 -151
-170 -291 -181 -310 -10 -19 -81 -141 -157 -270 -76 -129 -146 -251 -157 -270
-11 -19 -68 -116 -126 -215 -100 -171 -222 -402 -222 -421 0 -5 -6 -21 -14
-35 -13 -25 -51 -141 -61 -184 -2 -11 -11 -54 -20 -95 -24 -107 -23 -430 1
-471 2 -4 6 -24 10 -45 24 -150 149 -413 270 -564 73 -91 271 -271 314 -285
11 -4 20 -10 20 -15 0 -18 248 -130 350 -158 126 -35 186 -45 305 -47 348 -6
658 160 893 479 37 51 73 103 81 116 8 14 75 129 149 255 74 127 160 273 190
325 30 52 74 127 97 165 57 96 83 140 655 1120 632 1083 768 1314 845 1445 34
58 78 134 99 170 20 36 41 72 46 80 16 24 200 340 228 390 14 25 42 71 64 103
21 32 38 60 38 62 0 2 37 57 82 122 130 187 336 380 534 500 121 73 344 167
449 188 145 29 208 37 327 40 253 5 453 -45 733 -182 179 -88 332 -199 485
-353 129 -128 151 -154 222 -255 77 -110 150 -242 197 -355 39 -95 95 -273
106 -340 3 -19 8 -42 10 -50 27 -99 27 -495 0 -630 -3 -14 -7 -37 -10 -52 -44
-241 -186 -595 -319 -798 -21 -31 -121 -200 -152 -255 -6 -11 -48 -83 -94
-160 -45 -77 -90 -153 -99 -170 -9 -16 -62 -106 -117 -200 -104 -175 -404
-687 -434 -740 -10 -16 -47 -81 -84 -143 -36 -62 -77 -132 -90 -155 -23 -41
-536 -922 -641 -1102 -29 -49 -134 -232 -235 -405 -100 -173 -230 -398 -290
-500 -59 -102 -160 -277 -225 -390 -65 -113 -128 -222 -141 -242 -13 -21 -24
-39 -24 -42 0 -2 -42 -75 -93 -163 -51 -87 -96 -165 -100 -173 -4 -8 -13 -24
-20 -35 -10 -16 -82 -142 -142 -247 -5 -10 -95 -165 -200 -345 -175 -304 -332
-595 -350 -652 -4 -13 -14 -40 -22 -60 -9 -20 -15 -37 -14 -39 1 -1 -5 -15
-13 -31 -18 -33 -96 -295 -120 -396 -80 -349 -101 -767 -56 -1125 19 -155 88
-480 108 -516 6 -10 158 245 333 555 14 25 111 192 214 371 103 179 196 341
207 360 10 19 28 51 39 70 12 19 91 156 176 304 86 148 164 283 174 300 10 17
22 37 25 45 4 7 28 50 54 95 60 103 188 326 252 436 26 47 53 92 58 100 6 8
13 22 17 30 4 8 20 38 36 65 40 67 110 189 252 435 65 113 143 248 173 300
166 286 192 332 192 336 0 3 11 21 24 42 25 41 74 124 251 432 64 113 139 242
166 288 27 45 49 87 49 92 0 6 5 10 10 10 6 0 10 4 10 9 0 11 -4 4 332 586
146 253 275 476 286 495 11 19 79 139 152 265 73 127 141 244 151 262 10 17
29 50 43 72 15 22 26 43 26 45 0 3 19 38 43 78 24 40 62 105 84 143 22 39 88
152 147 253 58 101 106 186 106 189 0 4 6 14 14 22 8 9 26 39 40 66 15 28 31
57 36 65 20 31 126 216 133 230 4 8 15 29 26 45 10 17 80 138 156 270 76 132
141 245 145 250 4 6 19 30 32 55 14 25 80 140 148 255 67 116 131 226 141 245
11 19 25 44 32 55 45 72 77 126 77 130 0 3 11 23 25 46 29 45 140 264 180 354
92 207 182 498 211 680 4 28 8 52 9 55 3 11 21 147 30 235 7 63 8 384 1 450
-3 28 -9 75 -12 105 -32 287 -106 570 -216 830 -52 122 -131 280 -174 348 -19
29 -34 55 -34 58 0 3 -31 51 -69 107 -339 497 -813 884 -1350 1101 -168 69
-348 125 -486 152 -11 2 -42 8 -70 14 -27 5 -77 12 -110 16 -33 3 -73 8 -90
10 -36 5 -348 5 -390 0 -16 -2 -57 -7 -90 -11 -32 -3 -62 -8 -65 -10 -3 -1
-27 -6 -54 -9 -164 -22 -460 -125 -641 -222 -39 -21 -83 -44 -100 -53 -178
-94 -529 -378 -703 -568 -224 -244 -249 -283 -867 -1343 -175 -300 -357 -612
-405 -695 -48 -82 -97 -166 -108 -185 -21 -38 -209 -363 -272 -470 -51 -88
-248 -426 -272 -470 -11 -19 -41 -71 -67 -115 -26 -44 -51 -87 -55 -95 -4 -8
-12 -24 -19 -35 -42 -70 -117 -197 -117 -200 0 -2 -21 -39 -46 -82 -26 -43
-56 -94 -67 -113 -10 -19 -43 -75 -72 -125 -86 -146 -257 -438 -269 -460 -40
-72 -121 -196 -149 -228 -87 -97 -194 -93 -309 11 -101 91 -93 214 26 417 16
28 38 66 49 85 11 19 28 49 38 65 11 17 22 37 26 45 4 8 138 233 298 500 161
267 331 553 380 635 48 83 96 162 106 177 11 15 19 29 19 32 0 3 14 29 31 58
36 61 165 288 189 333 9 17 32 59 52 95 230 410 527 1030 666 1390 66 170 94
247 97 260 2 8 17 53 34 100 57 162 130 418 170 601 41 189 45 211 62 339 5
41 12 89 14 105 23 169 24 576 1 690 -2 11 -7 42 -10 69 -4 27 -14 79 -22 115
-8 36 -16 72 -16 79 -2 20 -16 14 -31 -15z"/>
</g>
</svg>
